<?xml version="1.0" encoding="UTF-8" standalone="no"?>
<!DOCTYPE svg PUBLIC "-//W3C//DTD SVG 1.1//EN"
 "http://www.w3.org/Graphics/SVG/1.1/DTD/svg11.dtd">
<!-- Generated by graphviz version 2.40.1 (20161225.0304)
 -->
<!-- Title: dependencies Pages: 1 -->
<svg width="938pt" height="211pt"
 viewBox="0.00 0.00 938.00 211.00" xmlns="http://www.w3.org/2000/svg" xmlns:xlink="http://www.w3.org/1999/xlink">
<g id="graph0" class="graph" transform="scale(1 1) rotate(0) translate(4 207)">
<title>dependencies</title>
<polygon fill="#ffffff" stroke="transparent" points="-4,4 -4,-207 934,-207 934,4 -4,4"/>
<text text-anchor="start" x="444.0091" y="-42.4" font-family="sans-serif" font-weight="bold" font-size="14.00" fill="#000000">Legend</text>
<polygon fill="#ffffb3" stroke="transparent" points="231,-10 231,-30 251,-30 251,-10 231,-10"/>
<text text-anchor="start" x="254.629" y="-15.4" font-family="sans-serif" font-size="14.00" fill="#000000"> &#160;Declarations</text>
<polygon fill="#8dd3c7" stroke="transparent" points="344,-10 344,-30 364,-30 364,-10 344,-10"/>
<text text-anchor="start" x="367.7251" y="-15.4" font-family="sans-serif" font-size="14.00" fill="#000000"> &#160;Module</text>
<polygon fill="#80b1d3" stroke="transparent" points="430,-10 430,-30 450,-30 450,-10 430,-10"/>
<text text-anchor="start" x="453.7812" y="-15.4" font-family="sans-serif" font-size="14.00" fill="#000000"> &#160;Bootstrap</text>
<polygon fill="#fdb462" stroke="transparent" points="527,-10 527,-30 547,-30 547,-10 527,-10"/>
<text text-anchor="start" x="550.6732" y="-15.4" font-family="sans-serif" font-size="14.00" fill="#000000"> &#160;Providers</text>
<polygon fill="#fb8072" stroke="transparent" points="623,-10 623,-30 643,-30 643,-10 623,-10"/>
<text text-anchor="start" x="646.7258" y="-15.4" font-family="sans-serif" font-size="14.00" fill="#000000"> &#160;Exports</text>
<g id="clust1" class="cluster">
<title>cluster_Feature1Module</title>
<polygon fill="none" stroke="#000000" stroke-dasharray="1,5" points="8,-70 8,-195 922,-195 922,-70 8,-70"/>
</g>
<g id="clust2" class="cluster">
<title>cluster_Feature1Module_declarations</title>
<polygon fill="none" stroke="#000000" points="318,-78 318,-130 914,-130 914,-78 318,-78"/>
</g>
<g id="clust7" class="cluster">
<title>cluster_Feature1Module_imports</title>
<polygon fill="none" stroke="#000000" points="16,-78 16,-130 310,-130 310,-78 16,-78"/>
</g>
<!-- F1test1Component -->
<g id="node1" class="node">
<title>F1test1Component</title>
<polygon fill="#ffffb3" stroke="#000000" points="906.0562,-122 783.9438,-122 783.9438,-86 906.0562,-86 906.0562,-122"/>
<text text-anchor="middle" x="845" y="-99.8" font-family="Times,serif" font-size="14.00" fill="#000000">F1test1Component</text>
</g>
<!-- Feature1Module -->
<g id="node5" class="node">
<title>Feature1Module</title>
<polygon fill="#8dd3c7" stroke="#000000" points="538.0284,-187 535.0284,-191 514.0284,-191 511.0284,-187 429.9716,-187 429.9716,-151 538.0284,-151 538.0284,-187"/>
<text text-anchor="middle" x="484" y="-164.8" font-family="Times,serif" font-size="14.00" fill="#000000">Feature1Module</text>
</g>
<!-- F1test1Component&#45;&gt;Feature1Module -->
<g id="edge1" class="edge">
<title>F1test1Component&#45;&gt;Feature1Module</title>
<path fill="none" stroke="#000000" d="M845,-122.2843C845,-143.3211 845,-175 845,-175 845,-175 548.0453,-175 548.0453,-175"/>
<polygon fill="#000000" stroke="#000000" points="548.0454,-171.5001 538.0453,-175 548.0453,-178.5001 548.0454,-171.5001"/>
</g>
<!-- F1test2Component -->
<g id="node2" class="node">
<title>F1test2Component</title>
<polygon fill="#ffffb3" stroke="#000000" points="765.0562,-122 642.9438,-122 642.9438,-86 765.0562,-86 765.0562,-122"/>
<text text-anchor="middle" x="704" y="-99.8" font-family="Times,serif" font-size="14.00" fill="#000000">F1test2Component</text>
</g>
<!-- F1test2Component&#45;&gt;Feature1Module -->
<g id="edge2" class="edge">
<title>F1test2Component&#45;&gt;Feature1Module</title>
<path fill="none" stroke="#000000" d="M704,-122.0225C704,-139.3734 704,-163 704,-163 704,-163 548.0998,-163 548.0998,-163"/>
<polygon fill="#000000" stroke="#000000" points="548.0999,-159.5001 538.0998,-163 548.0998,-166.5001 548.0999,-159.5001"/>
</g>
<!-- F1test3Component -->
<g id="node3" class="node">
<title>F1test3Component</title>
<polygon fill="#ffffb3" stroke="#000000" points="624.0562,-122 501.9438,-122 501.9438,-86 624.0562,-86 624.0562,-122"/>
<text text-anchor="middle" x="563" y="-99.8" font-family="Times,serif" font-size="14.00" fill="#000000">F1test3Component</text>
</g>
<!-- F1test3Component&#45;&gt;Feature1Module -->
<g id="edge3" class="edge">
<title>F1test3Component&#45;&gt;Feature1Module</title>
<path fill="none" stroke="#000000" d="M519.993,-122.1061C519.993,-122.1061 519.993,-140.991 519.993,-140.991"/>
<polygon fill="#000000" stroke="#000000" points="516.4931,-140.9909 519.993,-150.991 523.4931,-140.991 516.4931,-140.9909"/>
</g>
<!-- FeatureHomeComponent -->
<g id="node4" class="node">
<title>FeatureHomeComponent</title>
<polygon fill="#ffffb3" stroke="#000000" points="483.5225,-122 326.4775,-122 326.4775,-86 483.5225,-86 483.5225,-122"/>
<text text-anchor="middle" x="405" y="-99.8" font-family="Times,serif" font-size="14.00" fill="#000000">FeatureHomeComponent</text>
</g>
<!-- FeatureHomeComponent&#45;&gt;Feature1Module -->
<g id="edge4" class="edge">
<title>FeatureHomeComponent&#45;&gt;Feature1Module</title>
<path fill="none" stroke="#000000" d="M456.7486,-122.1061C456.7486,-122.1061 456.7486,-140.991 456.7486,-140.991"/>
<polygon fill="#000000" stroke="#000000" points="453.2487,-140.9909 456.7486,-150.991 460.2487,-140.991 453.2487,-140.9909"/>
</g>
<!-- Feature1RoutingModule -->
<g id="node6" class="node">
<title>Feature1RoutingModule</title>
<polygon fill="#8dd3c7" stroke="#000000" points="301.6456,-122 298.6456,-126 277.6456,-126 274.6456,-122 148.3544,-122 148.3544,-86 301.6456,-86 301.6456,-122"/>
<text text-anchor="middle" x="225" y="-99.8" font-family="Times,serif" font-size="14.00" fill="#000000">Feature1RoutingModule</text>
</g>
<!-- Feature1RoutingModule&#45;&gt;Feature1Module -->
<g id="edge5" class="edge">
<title>Feature1RoutingModule&#45;&gt;Feature1Module</title>
<path fill="none" stroke="#000000" d="M225,-122.0225C225,-139.3734 225,-163 225,-163 225,-163 419.7051,-163 419.7051,-163"/>
<polygon fill="#000000" stroke="#000000" points="419.7051,-166.5001 429.7051,-163 419.7051,-159.5001 419.7051,-166.5001"/>
</g>
<!-- MaterialModule -->
<g id="node7" class="node">
<title>MaterialModule</title>
<polygon fill="#8dd3c7" stroke="#000000" points="130.4706,-122 127.4706,-126 106.4706,-126 103.4706,-122 23.5294,-122 23.5294,-86 130.4706,-86 130.4706,-122"/>
<text text-anchor="middle" x="77" y="-99.8" font-family="Times,serif" font-size="14.00" fill="#000000">MaterialModule</text>
</g>
<!-- MaterialModule&#45;&gt;Feature1Module -->
<g id="edge6" class="edge">
<title>MaterialModule&#45;&gt;Feature1Module</title>
<path fill="none" stroke="#000000" d="M77,-122.2843C77,-143.3211 77,-175 77,-175 77,-175 419.9535,-175 419.9535,-175"/>
<polygon fill="#000000" stroke="#000000" points="419.9536,-178.5001 429.9535,-175 419.9535,-171.5001 419.9536,-178.5001"/>
</g>
</g>
</svg>
