<?xml version="1.0" encoding="UTF-8" standalone="no"?>
<!DOCTYPE svg PUBLIC "-//W3C//DTD SVG 1.1//EN"
 "http://www.w3.org/Graphics/SVG/1.1/DTD/svg11.dtd">
<!-- Generated by graphviz version 2.40.1 (20161225.0304)
 -->
<!-- Title: dependencies Pages: 1 -->
<svg width="680pt" height="211pt"
 viewBox="0.00 0.00 680.00 211.00" xmlns="http://www.w3.org/2000/svg" xmlns:xlink="http://www.w3.org/1999/xlink">
<g id="graph0" class="graph" transform="scale(1 1) rotate(0) translate(4 207)">
<title>dependencies</title>
<polygon fill="#ffffff" stroke="transparent" points="-4,4 -4,-207 676,-207 676,4 -4,4"/>
<text text-anchor="start" x="315.0091" y="-42.4" font-family="sans-serif" font-weight="bold" font-size="14.00" fill="#000000">Legend</text>
<polygon fill="#ffffb3" stroke="transparent" points="102,-10 102,-30 122,-30 122,-10 102,-10"/>
<text text-anchor="start" x="125.629" y="-15.4" font-family="sans-serif" font-size="14.00" fill="#000000"> &#160;Declarations</text>
<polygon fill="#8dd3c7" stroke="transparent" points="215,-10 215,-30 235,-30 235,-10 215,-10"/>
<text text-anchor="start" x="238.7251" y="-15.4" font-family="sans-serif" font-size="14.00" fill="#000000"> &#160;Module</text>
<polygon fill="#80b1d3" stroke="transparent" points="301,-10 301,-30 321,-30 321,-10 301,-10"/>
<text text-anchor="start" x="324.7812" y="-15.4" font-family="sans-serif" font-size="14.00" fill="#000000"> &#160;Bootstrap</text>
<polygon fill="#fdb462" stroke="transparent" points="398,-10 398,-30 418,-30 418,-10 398,-10"/>
<text text-anchor="start" x="421.6732" y="-15.4" font-family="sans-serif" font-size="14.00" fill="#000000"> &#160;Providers</text>
<polygon fill="#fb8072" stroke="transparent" points="494,-10 494,-30 514,-30 514,-10 494,-10"/>
<text text-anchor="start" x="517.7258" y="-15.4" font-family="sans-serif" font-size="14.00" fill="#000000"> &#160;Exports</text>
<g id="clust1" class="cluster">
<title>cluster_Feature3Module</title>
<polygon fill="none" stroke="#000000" stroke-dasharray="1,5" points="8,-70 8,-195 664,-195 664,-70 8,-70"/>
</g>
<g id="clust2" class="cluster">
<title>cluster_Feature3Module_declarations</title>
<polygon fill="none" stroke="#000000" points="318,-78 318,-130 656,-130 656,-78 318,-78"/>
</g>
<g id="clust5" class="cluster">
<title>cluster_Feature3Module_imports</title>
<polygon fill="none" stroke="#000000" points="16,-78 16,-130 310,-130 310,-78 16,-78"/>
</g>
<!-- Feature3HomeComponent -->
<g id="node1" class="node">
<title>Feature3HomeComponent</title>
<polygon fill="#ffffb3" stroke="#000000" points="648.0225,-122 483.9775,-122 483.9775,-86 648.0225,-86 648.0225,-122"/>
<text text-anchor="middle" x="566" y="-99.8" font-family="Times,serif" font-size="14.00" fill="#000000">Feature3HomeComponent</text>
</g>
<!-- Feature3Module -->
<g id="node3" class="node">
<title>Feature3Module</title>
<polygon fill="#8dd3c7" stroke="#000000" points="364.0284,-187 361.0284,-191 340.0284,-191 337.0284,-187 255.9716,-187 255.9716,-151 364.0284,-151 364.0284,-187"/>
<text text-anchor="middle" x="310" y="-164.8" font-family="Times,serif" font-size="14.00" fill="#000000">Feature3Module</text>
</g>
<!-- Feature3HomeComponent&#45;&gt;Feature3Module -->
<g id="edge1" class="edge">
<title>Feature3HomeComponent&#45;&gt;Feature3Module</title>
<path fill="none" stroke="#000000" d="M566,-122.1061C566,-141.3391 566,-169 566,-169 566,-169 374.291,-169 374.291,-169"/>
<polygon fill="#000000" stroke="#000000" points="374.2911,-165.5001 364.291,-169 374.291,-172.5001 374.2911,-165.5001"/>
</g>
<!-- GuardTestComponent -->
<g id="node2" class="node">
<title>GuardTestComponent</title>
<polygon fill="#ffffb3" stroke="#000000" points="466.4172,-122 325.5828,-122 325.5828,-86 466.4172,-86 466.4172,-122"/>
<text text-anchor="middle" x="396" y="-99.8" font-family="Times,serif" font-size="14.00" fill="#000000">GuardTestComponent</text>
</g>
<!-- GuardTestComponent&#45;&gt;Feature3Module -->
<g id="edge2" class="edge">
<title>GuardTestComponent&#45;&gt;Feature3Module</title>
<path fill="none" stroke="#000000" d="M345.0277,-122.1061C345.0277,-122.1061 345.0277,-140.991 345.0277,-140.991"/>
<polygon fill="#000000" stroke="#000000" points="341.5278,-140.9909 345.0277,-150.991 348.5278,-140.991 341.5278,-140.9909"/>
</g>
<!-- Feature3RoutingModule -->
<g id="node4" class="node">
<title>Feature3RoutingModule</title>
<polygon fill="#8dd3c7" stroke="#000000" points="301.6456,-122 298.6456,-126 277.6456,-126 274.6456,-122 148.3544,-122 148.3544,-86 301.6456,-86 301.6456,-122"/>
<text text-anchor="middle" x="225" y="-99.8" font-family="Times,serif" font-size="14.00" fill="#000000">Feature3RoutingModule</text>
</g>
<!-- Feature3RoutingModule&#45;&gt;Feature3Module -->
<g id="edge3" class="edge">
<title>Feature3RoutingModule&#45;&gt;Feature3Module</title>
<path fill="none" stroke="#000000" d="M278.7795,-122.1061C278.7795,-122.1061 278.7795,-140.991 278.7795,-140.991"/>
<polygon fill="#000000" stroke="#000000" points="275.2795,-140.9909 278.7795,-150.991 282.2795,-140.991 275.2795,-140.9909"/>
</g>
<!-- MaterialModule -->
<g id="node5" class="node">
<title>MaterialModule</title>
<polygon fill="#8dd3c7" stroke="#000000" points="130.4706,-122 127.4706,-126 106.4706,-126 103.4706,-122 23.5294,-122 23.5294,-86 130.4706,-86 130.4706,-122"/>
<text text-anchor="middle" x="77" y="-99.8" font-family="Times,serif" font-size="14.00" fill="#000000">MaterialModule</text>
</g>
<!-- MaterialModule&#45;&gt;Feature3Module -->
<g id="edge4" class="edge">
<title>MaterialModule&#45;&gt;Feature3Module</title>
<path fill="none" stroke="#000000" d="M77,-122.1061C77,-141.3391 77,-169 77,-169 77,-169 245.9595,-169 245.9595,-169"/>
<polygon fill="#000000" stroke="#000000" points="245.9595,-172.5001 255.9595,-169 245.9594,-165.5001 245.9595,-172.5001"/>
</g>
</g>
</svg>
