<?xml version="1.0" encoding="UTF-8" standalone="no"?>
<!DOCTYPE svg PUBLIC "-//W3C//DTD SVG 1.1//EN"
 "http://www.w3.org/Graphics/SVG/1.1/DTD/svg11.dtd">
<!-- Generated by graphviz version 2.40.1 (20161225.0304)
 -->
<!-- Title: dependencies Pages: 1 -->
<svg width="1124pt" height="284pt"
 viewBox="0.00 0.00 1124.00 284.00" xmlns="http://www.w3.org/2000/svg" xmlns:xlink="http://www.w3.org/1999/xlink">
<g id="graph0" class="graph" transform="scale(1 1) rotate(0) translate(4 280)">
<title>dependencies</title>
<polygon fill="#ffffff" stroke="transparent" points="-4,4 -4,-280 1120,-280 1120,4 -4,4"/>
<text text-anchor="start" x="537.0091" y="-42.4" font-family="sans-serif" font-weight="bold" font-size="14.00" fill="#000000">Legend</text>
<polygon fill="#ffffb3" stroke="transparent" points="324,-10 324,-30 344,-30 344,-10 324,-10"/>
<text text-anchor="start" x="347.629" y="-15.4" font-family="sans-serif" font-size="14.00" fill="#000000"> &#160;Declarations</text>
<polygon fill="#8dd3c7" stroke="transparent" points="437,-10 437,-30 457,-30 457,-10 437,-10"/>
<text text-anchor="start" x="460.7251" y="-15.4" font-family="sans-serif" font-size="14.00" fill="#000000"> &#160;Module</text>
<polygon fill="#80b1d3" stroke="transparent" points="523,-10 523,-30 543,-30 543,-10 523,-10"/>
<text text-anchor="start" x="546.7812" y="-15.4" font-family="sans-serif" font-size="14.00" fill="#000000"> &#160;Bootstrap</text>
<polygon fill="#fdb462" stroke="transparent" points="620,-10 620,-30 640,-30 640,-10 620,-10"/>
<text text-anchor="start" x="643.6732" y="-15.4" font-family="sans-serif" font-size="14.00" fill="#000000"> &#160;Providers</text>
<polygon fill="#fb8072" stroke="transparent" points="716,-10 716,-30 736,-30 736,-10 716,-10"/>
<text text-anchor="start" x="739.7258" y="-15.4" font-family="sans-serif" font-size="14.00" fill="#000000"> &#160;Exports</text>
<g id="clust1" class="cluster">
<title>cluster_AppModule</title>
<polygon fill="none" stroke="#000000" stroke-dasharray="1,5" points="8,-70 8,-268 1108,-268 1108,-70 8,-70"/>
</g>
<g id="clust2" class="cluster">
<title>cluster_AppModule_declarations</title>
<polygon fill="none" stroke="#000000" points="293,-78 293,-130 1100,-130 1100,-78 293,-78"/>
</g>
<g id="clust8" class="cluster">
<title>cluster_AppModule_imports</title>
<polygon fill="none" stroke="#000000" points="16,-78 16,-130 285,-130 285,-78 16,-78"/>
</g>
<g id="clust10" class="cluster">
<title>cluster_AppModule_bootstrap</title>
<polygon fill="none" stroke="#000000" points="488,-208 488,-260 612,-260 612,-208 488,-208"/>
</g>
<!-- AppComponent -->
<g id="node1" class="node">
<title>AppComponent</title>
<polygon fill="#ffffb3" stroke="#000000" points="1091.9399,-122 986.0601,-122 986.0601,-86 1091.9399,-86 1091.9399,-122"/>
<text text-anchor="middle" x="1039" y="-99.8" font-family="Times,serif" font-size="14.00" fill="#000000">AppComponent</text>
</g>
<!-- AppModule -->
<g id="node6" class="node">
<title>AppModule</title>
<polygon fill="#8dd3c7" stroke="#000000" points="591.6571,-187 588.6571,-191 567.6571,-191 564.6571,-187 508.3429,-187 508.3429,-151 591.6571,-151 591.6571,-187"/>
<text text-anchor="middle" x="550" y="-164.8" font-family="Times,serif" font-size="14.00" fill="#000000">AppModule</text>
</g>
<!-- AppComponent&#45;&gt;AppModule -->
<g id="edge1" class="edge">
<title>AppComponent&#45;&gt;AppModule</title>
<path fill="none" stroke="#000000" d="M1039,-122.2921C1039,-144.2057 1039,-178 1039,-178 1039,-178 601.6919,-178 601.6919,-178"/>
<polygon fill="#000000" stroke="#000000" points="601.6919,-174.5001 591.6919,-178 601.6918,-181.5001 601.6919,-174.5001"/>
</g>
<!-- HeaderNavigationComponent -->
<g id="node2" class="node">
<title>HeaderNavigationComponent</title>
<polygon fill="#ffffb3" stroke="#000000" points="967.951,-122 784.049,-122 784.049,-86 967.951,-86 967.951,-122"/>
<text text-anchor="middle" x="876" y="-99.8" font-family="Times,serif" font-size="14.00" fill="#000000">HeaderNavigationComponent</text>
</g>
<!-- HeaderNavigationComponent&#45;&gt;AppModule -->
<g id="edge2" class="edge">
<title>HeaderNavigationComponent&#45;&gt;AppModule</title>
<path fill="none" stroke="#000000" d="M876,-122.1061C876,-141.3391 876,-169 876,-169 876,-169 601.9514,-169 601.9514,-169"/>
<polygon fill="#000000" stroke="#000000" points="601.9514,-165.5001 591.9514,-169 601.9514,-172.5001 601.9514,-165.5001"/>
</g>
<!-- HomeComponent -->
<g id="node3" class="node">
<title>HomeComponent</title>
<polygon fill="#ffffb3" stroke="#000000" points="765.5451,-122 650.4549,-122 650.4549,-86 765.5451,-86 765.5451,-122"/>
<text text-anchor="middle" x="708" y="-99.8" font-family="Times,serif" font-size="14.00" fill="#000000">HomeComponent</text>
</g>
<!-- HomeComponent&#45;&gt;AppModule -->
<g id="edge3" class="edge">
<title>HomeComponent&#45;&gt;AppModule</title>
<path fill="none" stroke="#000000" d="M708,-122.027C708,-138.3976 708,-160 708,-160 708,-160 601.9263,-160 601.9263,-160"/>
<polygon fill="#000000" stroke="#000000" points="601.9263,-156.5001 591.9263,-160 601.9262,-163.5001 601.9263,-156.5001"/>
</g>
<!-- PageNotFoundComponent -->
<g id="node4" class="node">
<title>PageNotFoundComponent</title>
<polygon fill="#ffffb3" stroke="#000000" points="632.8243,-122 467.1757,-122 467.1757,-86 632.8243,-86 632.8243,-122"/>
<text text-anchor="middle" x="550" y="-99.8" font-family="Times,serif" font-size="14.00" fill="#000000">PageNotFoundComponent</text>
</g>
<!-- PageNotFoundComponent&#45;&gt;AppModule -->
<g id="edge4" class="edge">
<title>PageNotFoundComponent&#45;&gt;AppModule</title>
<path fill="none" stroke="#000000" d="M550,-122.1061C550,-122.1061 550,-140.991 550,-140.991"/>
<polygon fill="#000000" stroke="#000000" points="546.5001,-140.9909 550,-150.991 553.5001,-140.991 546.5001,-140.9909"/>
</g>
<!-- SidenavListComponent -->
<g id="node5" class="node">
<title>SidenavListComponent</title>
<polygon fill="#ffffb3" stroke="#000000" points="449.2134,-122 300.7866,-122 300.7866,-86 449.2134,-86 449.2134,-122"/>
<text text-anchor="middle" x="375" y="-99.8" font-family="Times,serif" font-size="14.00" fill="#000000">SidenavListComponent</text>
</g>
<!-- SidenavListComponent&#45;&gt;AppModule -->
<g id="edge5" class="edge">
<title>SidenavListComponent&#45;&gt;AppModule</title>
<path fill="none" stroke="#000000" d="M375,-122.027C375,-138.3976 375,-160 375,-160 375,-160 498.0831,-160 498.0831,-160"/>
<polygon fill="#000000" stroke="#000000" points="498.0832,-163.5001 508.0831,-160 498.0831,-156.5001 498.0832,-163.5001"/>
</g>
<!-- AppComponent  -->
<g id="node9" class="node">
<title>AppComponent </title>
<polygon fill="#80b1d3" stroke="#000000" points="604.439,-252 495.561,-252 495.561,-216 604.439,-216 604.439,-252"/>
<text text-anchor="middle" x="550" y="-229.8" font-family="Times,serif" font-size="14.00" fill="#000000">AppComponent </text>
</g>
<!-- AppModule&#45;&gt;AppComponent  -->
<g id="edge8" class="edge">
<title>AppModule&#45;&gt;AppComponent </title>
<path fill="none" stroke="#000000" stroke-dasharray="1,5" d="M550,-187.1061C550,-187.1061 550,-205.991 550,-205.991"/>
<polygon fill="#000000" stroke="#000000" points="546.5001,-205.9909 550,-215.991 553.5001,-205.991 546.5001,-205.9909"/>
</g>
<!-- AppRoutingModule -->
<g id="node7" class="node">
<title>AppRoutingModule</title>
<polygon fill="#8dd3c7" stroke="#000000" points="277.2744,-122 274.2744,-126 253.2744,-126 250.2744,-122 148.7256,-122 148.7256,-86 277.2744,-86 277.2744,-122"/>
<text text-anchor="middle" x="213" y="-99.8" font-family="Times,serif" font-size="14.00" fill="#000000">AppRoutingModule</text>
</g>
<!-- AppRoutingModule&#45;&gt;AppModule -->
<g id="edge6" class="edge">
<title>AppRoutingModule&#45;&gt;AppModule</title>
<path fill="none" stroke="#000000" d="M213,-122.1061C213,-141.3391 213,-169 213,-169 213,-169 498.3392,-169 498.3392,-169"/>
<polygon fill="#000000" stroke="#000000" points="498.3392,-172.5001 508.3392,-169 498.3392,-165.5001 498.3392,-172.5001"/>
</g>
<!-- MaterialModule -->
<g id="node8" class="node">
<title>MaterialModule</title>
<polygon fill="#8dd3c7" stroke="#000000" points="130.4706,-122 127.4706,-126 106.4706,-126 103.4706,-122 23.5294,-122 23.5294,-86 130.4706,-86 130.4706,-122"/>
<text text-anchor="middle" x="77" y="-99.8" font-family="Times,serif" font-size="14.00" fill="#000000">MaterialModule</text>
</g>
<!-- MaterialModule&#45;&gt;AppModule -->
<g id="edge7" class="edge">
<title>MaterialModule&#45;&gt;AppModule</title>
<path fill="none" stroke="#000000" d="M77,-122.2921C77,-144.2057 77,-178 77,-178 77,-178 498.0244,-178 498.0244,-178"/>
<polygon fill="#000000" stroke="#000000" points="498.0244,-181.5001 508.0244,-178 498.0244,-174.5001 498.0244,-181.5001"/>
</g>
</g>
</svg>
