<?xml version="1.0" encoding="UTF-8" standalone="no"?>
<!DOCTYPE svg PUBLIC "-//W3C//DTD SVG 1.1//EN"
 "http://www.w3.org/Graphics/SVG/1.1/DTD/svg11.dtd">
<!-- Generated by graphviz version 2.40.1 (20161225.0304)
 -->
<!-- Title: dependencies Pages: 1 -->
<svg width="694pt" height="211pt"
 viewBox="0.00 0.00 694.00 211.00" xmlns="http://www.w3.org/2000/svg" xmlns:xlink="http://www.w3.org/1999/xlink">
<g id="graph0" class="graph" transform="scale(1 1) rotate(0) translate(4 207)">
<title>dependencies</title>
<polygon fill="#ffffff" stroke="transparent" points="-4,4 -4,-207 690,-207 690,4 -4,4"/>
<text text-anchor="start" x="322.0091" y="-42.4" font-family="sans-serif" font-weight="bold" font-size="14.00" fill="#000000">Legend</text>
<polygon fill="#ffffb3" stroke="transparent" points="109,-10 109,-30 129,-30 129,-10 109,-10"/>
<text text-anchor="start" x="132.629" y="-15.4" font-family="sans-serif" font-size="14.00" fill="#000000"> &#160;Declarations</text>
<polygon fill="#8dd3c7" stroke="transparent" points="222,-10 222,-30 242,-30 242,-10 222,-10"/>
<text text-anchor="start" x="245.7251" y="-15.4" font-family="sans-serif" font-size="14.00" fill="#000000"> &#160;Module</text>
<polygon fill="#80b1d3" stroke="transparent" points="308,-10 308,-30 328,-30 328,-10 308,-10"/>
<text text-anchor="start" x="331.7812" y="-15.4" font-family="sans-serif" font-size="14.00" fill="#000000"> &#160;Bootstrap</text>
<polygon fill="#fdb462" stroke="transparent" points="405,-10 405,-30 425,-30 425,-10 405,-10"/>
<text text-anchor="start" x="428.6732" y="-15.4" font-family="sans-serif" font-size="14.00" fill="#000000"> &#160;Providers</text>
<polygon fill="#fb8072" stroke="transparent" points="501,-10 501,-30 521,-30 521,-10 501,-10"/>
<text text-anchor="start" x="524.7258" y="-15.4" font-family="sans-serif" font-size="14.00" fill="#000000"> &#160;Exports</text>
<g id="clust1" class="cluster">
<title>cluster_Feature2Module</title>
<polygon fill="none" stroke="#000000" stroke-dasharray="1,5" points="8,-70 8,-195 678,-195 678,-70 8,-70"/>
</g>
<g id="clust2" class="cluster">
<title>cluster_Feature2Module_declarations</title>
<polygon fill="none" stroke="#000000" points="318,-78 318,-130 670,-130 670,-78 318,-78"/>
</g>
<g id="clust5" class="cluster">
<title>cluster_Feature2Module_imports</title>
<polygon fill="none" stroke="#000000" points="16,-78 16,-130 310,-130 310,-78 16,-78"/>
</g>
<!-- Feature2HomeComponent -->
<g id="node1" class="node">
<title>Feature2HomeComponent</title>
<polygon fill="#ffffb3" stroke="#000000" points="662.0225,-122 497.9775,-122 497.9775,-86 662.0225,-86 662.0225,-122"/>
<text text-anchor="middle" x="580" y="-99.8" font-family="Times,serif" font-size="14.00" fill="#000000">Feature2HomeComponent</text>
</g>
<!-- Feature2Module -->
<g id="node3" class="node">
<title>Feature2Module</title>
<polygon fill="#8dd3c7" stroke="#000000" points="368.0284,-187 365.0284,-191 344.0284,-191 341.0284,-187 259.9716,-187 259.9716,-151 368.0284,-151 368.0284,-187"/>
<text text-anchor="middle" x="314" y="-164.8" font-family="Times,serif" font-size="14.00" fill="#000000">Feature2Module</text>
</g>
<!-- Feature2HomeComponent&#45;&gt;Feature2Module -->
<g id="edge1" class="edge">
<title>Feature2HomeComponent&#45;&gt;Feature2Module</title>
<path fill="none" stroke="#000000" d="M580,-122.1061C580,-141.3391 580,-169 580,-169 580,-169 378.1497,-169 378.1497,-169"/>
<polygon fill="#000000" stroke="#000000" points="378.1497,-165.5001 368.1497,-169 378.1497,-172.5001 378.1497,-165.5001"/>
</g>
<!-- Feature2TestComponent -->
<g id="node2" class="node">
<title>Feature2TestComponent</title>
<polygon fill="#ffffb3" stroke="#000000" points="480.413,-122 325.587,-122 325.587,-86 480.413,-86 480.413,-122"/>
<text text-anchor="middle" x="403" y="-99.8" font-family="Times,serif" font-size="14.00" fill="#000000">Feature2TestComponent</text>
</g>
<!-- Feature2TestComponent&#45;&gt;Feature2Module -->
<g id="edge2" class="edge">
<title>Feature2TestComponent&#45;&gt;Feature2Module</title>
<path fill="none" stroke="#000000" d="M347.0288,-122.1061C347.0288,-122.1061 347.0288,-140.991 347.0288,-140.991"/>
<polygon fill="#000000" stroke="#000000" points="343.5288,-140.9909 347.0288,-150.991 350.5288,-140.991 343.5288,-140.9909"/>
</g>
<!-- Feature2RoutingModule -->
<g id="node4" class="node">
<title>Feature2RoutingModule</title>
<polygon fill="#8dd3c7" stroke="#000000" points="301.6456,-122 298.6456,-126 277.6456,-126 274.6456,-122 148.3544,-122 148.3544,-86 301.6456,-86 301.6456,-122"/>
<text text-anchor="middle" x="225" y="-99.8" font-family="Times,serif" font-size="14.00" fill="#000000">Feature2RoutingModule</text>
</g>
<!-- Feature2RoutingModule&#45;&gt;Feature2Module -->
<g id="edge3" class="edge">
<title>Feature2RoutingModule&#45;&gt;Feature2Module</title>
<path fill="none" stroke="#000000" d="M280.7795,-122.1061C280.7795,-122.1061 280.7795,-140.991 280.7795,-140.991"/>
<polygon fill="#000000" stroke="#000000" points="277.2795,-140.9909 280.7795,-150.991 284.2795,-140.991 277.2795,-140.9909"/>
</g>
<!-- MaterialModule -->
<g id="node5" class="node">
<title>MaterialModule</title>
<polygon fill="#8dd3c7" stroke="#000000" points="130.4706,-122 127.4706,-126 106.4706,-126 103.4706,-122 23.5294,-122 23.5294,-86 130.4706,-86 130.4706,-122"/>
<text text-anchor="middle" x="77" y="-99.8" font-family="Times,serif" font-size="14.00" fill="#000000">MaterialModule</text>
</g>
<!-- MaterialModule&#45;&gt;Feature2Module -->
<g id="edge4" class="edge">
<title>MaterialModule&#45;&gt;Feature2Module</title>
<path fill="none" stroke="#000000" d="M77,-122.1061C77,-141.3391 77,-169 77,-169 77,-169 249.9245,-169 249.9245,-169"/>
<polygon fill="#000000" stroke="#000000" points="249.9245,-172.5001 259.9245,-169 249.9244,-165.5001 249.9245,-172.5001"/>
</g>
</g>
</svg>
