<?xml version="1.0" encoding="UTF-8" standalone="no"?>
<!DOCTYPE svg PUBLIC "-//W3C//DTD SVG 1.1//EN"
 "http://www.w3.org/Graphics/SVG/1.1/DTD/svg11.dtd">
<!-- Generated by graphviz version 2.40.1 (20161225.0304)
 -->
<!-- Title: dependencies Pages: 1 -->
<svg width="3324pt" height="290pt"
 viewBox="0.00 0.00 3324.00 290.00" xmlns="http://www.w3.org/2000/svg" xmlns:xlink="http://www.w3.org/1999/xlink">
<g id="graph0" class="graph" transform="scale(1 1) rotate(0) translate(4 286)">
<title>dependencies</title>
<polygon fill="#ffffff" stroke="transparent" points="-4,4 -4,-286 3320,-286 3320,4 -4,4"/>
<text text-anchor="start" x="1637.0091" y="-42.4" font-family="sans-serif" font-weight="bold" font-size="14.00" fill="#000000">Legend</text>
<polygon fill="#ffffb3" stroke="transparent" points="1424,-10 1424,-30 1444,-30 1444,-10 1424,-10"/>
<text text-anchor="start" x="1447.629" y="-15.4" font-family="sans-serif" font-size="14.00" fill="#000000"> &#160;Declarations</text>
<polygon fill="#8dd3c7" stroke="transparent" points="1537,-10 1537,-30 1557,-30 1557,-10 1537,-10"/>
<text text-anchor="start" x="1560.7251" y="-15.4" font-family="sans-serif" font-size="14.00" fill="#000000"> &#160;Module</text>
<polygon fill="#80b1d3" stroke="transparent" points="1623,-10 1623,-30 1643,-30 1643,-10 1623,-10"/>
<text text-anchor="start" x="1646.7812" y="-15.4" font-family="sans-serif" font-size="14.00" fill="#000000"> &#160;Bootstrap</text>
<polygon fill="#fdb462" stroke="transparent" points="1720,-10 1720,-30 1740,-30 1740,-10 1720,-10"/>
<text text-anchor="start" x="1743.6732" y="-15.4" font-family="sans-serif" font-size="14.00" fill="#000000"> &#160;Providers</text>
<polygon fill="#fb8072" stroke="transparent" points="1816,-10 1816,-30 1836,-30 1836,-10 1816,-10"/>
<text text-anchor="start" x="1839.7258" y="-15.4" font-family="sans-serif" font-size="14.00" fill="#000000"> &#160;Exports</text>
<g id="clust1" class="cluster">
<title>cluster_AppModule</title>
<polygon fill="none" stroke="#000000" stroke-dasharray="1,5" points="316,-70 316,-274 1416,-274 1416,-70 316,-70"/>
</g>
<g id="clust2" class="cluster">
<title>cluster_AppModule_declarations</title>
<polygon fill="none" stroke="#000000" points="324,-78 324,-130 1131,-130 1131,-78 324,-78"/>
</g>
<g id="clust8" class="cluster">
<title>cluster_AppModule_imports</title>
<polygon fill="none" stroke="#000000" points="1139,-78 1139,-130 1408,-130 1408,-78 1139,-78"/>
</g>
<g id="clust10" class="cluster">
<title>cluster_AppModule_bootstrap</title>
<polygon fill="none" stroke="#000000" points="842,-214 842,-266 966,-266 966,-214 842,-214"/>
</g>
<g id="clust18" class="cluster">
<title>cluster_Feature1Module</title>
<polygon fill="none" stroke="#000000" stroke-dasharray="1,5" points="1424,-70 1424,-198 2214,-198 2214,-70 1424,-70"/>
</g>
<g id="clust19" class="cluster">
<title>cluster_Feature1Module_declarations</title>
<polygon fill="none" stroke="#000000" points="1610,-78 1610,-130 2206,-130 2206,-78 1610,-78"/>
</g>
<g id="clust24" class="cluster">
<title>cluster_Feature1Module_imports</title>
<polygon fill="none" stroke="#000000" points="1432,-78 1432,-130 1602,-130 1602,-78 1432,-78"/>
</g>
<g id="clust34" class="cluster">
<title>cluster_Feature2Module</title>
<polygon fill="none" stroke="#000000" stroke-dasharray="1,5" points="2222,-70 2222,-198 2768,-198 2768,-70 2222,-70"/>
</g>
<g id="clust35" class="cluster">
<title>cluster_Feature2Module_declarations</title>
<polygon fill="none" stroke="#000000" points="2408,-78 2408,-130 2760,-130 2760,-78 2408,-78"/>
</g>
<g id="clust38" class="cluster">
<title>cluster_Feature2Module_imports</title>
<polygon fill="none" stroke="#000000" points="2230,-78 2230,-130 2400,-130 2400,-78 2230,-78"/>
</g>
<g id="clust48" class="cluster">
<title>cluster_Feature3Module</title>
<polygon fill="none" stroke="#000000" stroke-dasharray="1,5" points="2776,-70 2776,-198 3308,-198 3308,-70 2776,-70"/>
</g>
<g id="clust49" class="cluster">
<title>cluster_Feature3Module_declarations</title>
<polygon fill="none" stroke="#000000" points="2962,-78 2962,-130 3300,-130 3300,-78 2962,-78"/>
</g>
<g id="clust52" class="cluster">
<title>cluster_Feature3Module_imports</title>
<polygon fill="none" stroke="#000000" points="2784,-78 2784,-130 2954,-130 2954,-78 2784,-78"/>
</g>
<g id="clust62" class="cluster">
<title>cluster_MaterialModule</title>
<polygon fill="none" stroke="#000000" stroke-dasharray="1,5" points="8,-138 8,-206 308,-206 308,-138 8,-138"/>
</g>
<g id="clust63" class="cluster">
<title>cluster_MaterialModule_declarations</title>
<polygon fill="none" stroke="#000000" points="164,-146 164,-198 300,-198 300,-146 164,-146"/>
</g>
<g id="clust66" class="cluster">
<title>cluster_MaterialModule_exports</title>
<polygon fill="none" stroke="#000000" points="16,-146 16,-198 156,-198 156,-146 16,-146"/>
</g>
<!-- AppComponent -->
<g id="node1" class="node">
<title>AppComponent</title>
<polygon fill="#ffffb3" stroke="#000000" points="956.9399,-122 851.0601,-122 851.0601,-86 956.9399,-86 956.9399,-122"/>
<text text-anchor="middle" x="904" y="-99.8" font-family="Times,serif" font-size="14.00" fill="#000000">AppComponent</text>
</g>
<!-- AppModule -->
<g id="node6" class="node">
<title>AppModule</title>
<polygon fill="#8dd3c7" stroke="#000000" points="945.6571,-190 942.6571,-194 921.6571,-194 918.6571,-190 862.3429,-190 862.3429,-154 945.6571,-154 945.6571,-190"/>
<text text-anchor="middle" x="904" y="-167.8" font-family="Times,serif" font-size="14.00" fill="#000000">AppModule</text>
</g>
<!-- AppComponent&#45;&gt;AppModule -->
<g id="edge1" class="edge">
<title>AppComponent&#45;&gt;AppModule</title>
<path fill="none" stroke="#000000" d="M904,-122.2228C904,-122.2228 904,-143.7269 904,-143.7269"/>
<polygon fill="#000000" stroke="#000000" points="900.5001,-143.7269 904,-153.7269 907.5001,-143.727 900.5001,-143.7269"/>
</g>
<!-- HeaderNavigationComponent -->
<g id="node2" class="node">
<title>HeaderNavigationComponent</title>
<polygon fill="#ffffb3" stroke="#000000" points="832.951,-122 649.049,-122 649.049,-86 832.951,-86 832.951,-122"/>
<text text-anchor="middle" x="741" y="-99.8" font-family="Times,serif" font-size="14.00" fill="#000000">HeaderNavigationComponent</text>
</g>
<!-- HeaderNavigationComponent&#45;&gt;AppModule -->
<g id="edge2" class="edge">
<title>HeaderNavigationComponent&#45;&gt;AppModule</title>
<path fill="none" stroke="#000000" d="M741,-122.0225C741,-139.3734 741,-163 741,-163 741,-163 852.0234,-163 852.0234,-163"/>
<polygon fill="#000000" stroke="#000000" points="852.0235,-166.5001 862.0234,-163 852.0234,-159.5001 852.0235,-166.5001"/>
</g>
<!-- HomeComponent -->
<g id="node3" class="node">
<title>HomeComponent</title>
<polygon fill="#ffffb3" stroke="#000000" points="630.5451,-122 515.4549,-122 515.4549,-86 630.5451,-86 630.5451,-122"/>
<text text-anchor="middle" x="573" y="-99.8" font-family="Times,serif" font-size="14.00" fill="#000000">HomeComponent</text>
</g>
<!-- HomeComponent&#45;&gt;AppModule -->
<g id="edge3" class="edge">
<title>HomeComponent&#45;&gt;AppModule</title>
<path fill="none" stroke="#000000" d="M573,-122.2228C573,-142.3652 573,-172 573,-172 573,-172 852.0786,-172 852.0786,-172"/>
<polygon fill="#000000" stroke="#000000" points="852.0787,-175.5001 862.0786,-172 852.0786,-168.5001 852.0787,-175.5001"/>
</g>
<!-- PageNotFoundComponent -->
<g id="node4" class="node">
<title>PageNotFoundComponent</title>
<polygon fill="#ffffb3" stroke="#000000" points="497.8243,-122 332.1757,-122 332.1757,-86 497.8243,-86 497.8243,-122"/>
<text text-anchor="middle" x="415" y="-99.8" font-family="Times,serif" font-size="14.00" fill="#000000">PageNotFoundComponent</text>
</g>
<!-- PageNotFoundComponent&#45;&gt;AppModule -->
<g id="edge4" class="edge">
<title>PageNotFoundComponent&#45;&gt;AppModule</title>
<path fill="none" stroke="#000000" d="M415,-122.2479C415,-145.0179 415,-181 415,-181 415,-181 852.3081,-181 852.3081,-181"/>
<polygon fill="#000000" stroke="#000000" points="852.3082,-184.5001 862.3081,-181 852.3081,-177.5001 852.3082,-184.5001"/>
</g>
<!-- SidenavListComponent -->
<g id="node5" class="node">
<title>SidenavListComponent</title>
<polygon fill="#ffffb3" stroke="#000000" points="1123.2134,-122 974.7866,-122 974.7866,-86 1123.2134,-86 1123.2134,-122"/>
<text text-anchor="middle" x="1049" y="-99.8" font-family="Times,serif" font-size="14.00" fill="#000000">SidenavListComponent</text>
</g>
<!-- SidenavListComponent&#45;&gt;AppModule -->
<g id="edge5" class="edge">
<title>SidenavListComponent&#45;&gt;AppModule</title>
<path fill="none" stroke="#000000" d="M1049,-122.2228C1049,-142.3652 1049,-172 1049,-172 1049,-172 955.94,-172 955.94,-172"/>
<polygon fill="#000000" stroke="#000000" points="955.94,-168.5001 945.94,-172 955.94,-175.5001 955.94,-168.5001"/>
</g>
<!-- AppComponent  -->
<g id="node9" class="node">
<title>AppComponent </title>
<polygon fill="#80b1d3" stroke="#000000" points="958.439,-258 849.561,-258 849.561,-222 958.439,-222 958.439,-258"/>
<text text-anchor="middle" x="904" y="-235.8" font-family="Times,serif" font-size="14.00" fill="#000000">AppComponent </text>
</g>
<!-- AppModule&#45;&gt;AppComponent  -->
<g id="edge8" class="edge">
<title>AppModule&#45;&gt;AppComponent </title>
<path fill="none" stroke="#000000" stroke-dasharray="1,5" d="M904,-190.2228C904,-190.2228 904,-211.7269 904,-211.7269"/>
<polygon fill="#000000" stroke="#000000" points="900.5001,-211.7269 904,-221.7269 907.5001,-211.727 900.5001,-211.7269"/>
</g>
<!-- AppRoutingModule -->
<g id="node7" class="node">
<title>AppRoutingModule</title>
<polygon fill="#8dd3c7" stroke="#000000" points="1275.2744,-122 1272.2744,-126 1251.2744,-126 1248.2744,-122 1146.7256,-122 1146.7256,-86 1275.2744,-86 1275.2744,-122"/>
<text text-anchor="middle" x="1211" y="-99.8" font-family="Times,serif" font-size="14.00" fill="#000000">AppRoutingModule</text>
</g>
<!-- AppRoutingModule&#45;&gt;AppModule -->
<g id="edge6" class="edge">
<title>AppRoutingModule&#45;&gt;AppModule</title>
<path fill="none" stroke="#000000" d="M1211,-122.2921C1211,-144.2057 1211,-178 1211,-178 1211,-178 955.7229,-178 955.7229,-178"/>
<polygon fill="#000000" stroke="#000000" points="955.7229,-174.5001 945.7229,-178 955.7229,-181.5001 955.7229,-174.5001"/>
</g>
<!-- MaterialModule -->
<g id="node8" class="node">
<title>MaterialModule</title>
<polygon fill="#8dd3c7" stroke="#000000" points="1400.4706,-122 1397.4706,-126 1376.4706,-126 1373.4706,-122 1293.5294,-122 1293.5294,-86 1400.4706,-86 1400.4706,-122"/>
<text text-anchor="middle" x="1347" y="-99.8" font-family="Times,serif" font-size="14.00" fill="#000000">MaterialModule</text>
</g>
<!-- MaterialModule&#45;&gt;AppModule -->
<g id="edge7" class="edge">
<title>MaterialModule&#45;&gt;AppModule</title>
<path fill="none" stroke="#000000" d="M1369.9223,-122.1532C1369.9223,-145.7566 1369.9223,-184 1369.9223,-184 1369.9223,-184 955.7575,-184 955.7575,-184"/>
<polygon fill="#000000" stroke="#000000" points="955.7576,-180.5001 945.7575,-184 955.7575,-187.5001 955.7576,-180.5001"/>
</g>
<!-- Feature1Module -->
<g id="node14" class="node">
<title>Feature1Module</title>
<polygon fill="#8dd3c7" stroke="#000000" points="1830.0284,-190 1827.0284,-194 1806.0284,-194 1803.0284,-190 1721.9716,-190 1721.9716,-154 1830.0284,-154 1830.0284,-190"/>
<text text-anchor="middle" x="1776" y="-167.8" font-family="Times,serif" font-size="14.00" fill="#000000">Feature1Module</text>
</g>
<!-- MaterialModule&#45;&gt;Feature1Module -->
<g id="edge14" class="edge">
<title>MaterialModule&#45;&gt;Feature1Module</title>
<path fill="none" stroke="#000000" d="M1385.2038,-122.2667C1385.2038,-140.5552 1385.2038,-166 1385.2038,-166 1385.2038,-166 1711.6615,-166 1711.6615,-166"/>
<polygon fill="#000000" stroke="#000000" points="1711.6615,-169.5001 1721.6615,-166 1711.6614,-162.5001 1711.6615,-169.5001"/>
</g>
<!-- Feature2Module -->
<g id="node18" class="node">
<title>Feature2Module</title>
<polygon fill="#8dd3c7" stroke="#000000" points="2458.0284,-190 2455.0284,-194 2434.0284,-194 2431.0284,-190 2349.9716,-190 2349.9716,-154 2458.0284,-154 2458.0284,-190"/>
<text text-anchor="middle" x="2404" y="-167.8" font-family="Times,serif" font-size="14.00" fill="#000000">Feature2Module</text>
</g>
<!-- MaterialModule&#45;&gt;Feature2Module -->
<g id="edge18" class="edge">
<title>MaterialModule&#45;&gt;Feature2Module</title>
<path fill="none" stroke="#000000" d="M1339.3592,-122.1505C1339.3592,-134.2708 1339.3592,-148 1339.3592,-148 1339.3592,-148 2363.7651,-148 2363.7651,-148 2363.7651,-148 2363.7651,-148.581 2363.7651,-148.581"/>
<polygon fill="#000000" stroke="#000000" points="2360.2653,-143.8097 2363.7651,-153.8097 2367.2653,-143.8098 2360.2653,-143.8097"/>
</g>
<!-- Feature3Module -->
<g id="node22" class="node">
<title>Feature3Module</title>
<polygon fill="#8dd3c7" stroke="#000000" points="3008.0284,-190 3005.0284,-194 2984.0284,-194 2981.0284,-190 2899.9716,-190 2899.9716,-154 3008.0284,-154 3008.0284,-190"/>
<text text-anchor="middle" x="2954" y="-167.8" font-family="Times,serif" font-size="14.00" fill="#000000">Feature3Module</text>
</g>
<!-- MaterialModule&#45;&gt;Feature3Module -->
<g id="edge22" class="edge">
<title>MaterialModule&#45;&gt;Feature3Module</title>
<path fill="none" stroke="#000000" d="M1354.6408,-122.1686C1354.6408,-126.0459 1354.6408,-129 1354.6408,-129 1354.6408,-129 2915.0984,-129 2915.0984,-129 2915.0984,-129 2915.0984,-143.5146 2915.0984,-143.5146"/>
<polygon fill="#000000" stroke="#000000" points="2911.5985,-143.5145 2915.0984,-153.5146 2918.5985,-143.5146 2911.5985,-143.5145"/>
</g>
<!-- LayoutComponent  -->
<g id="node25" class="node">
<title>LayoutComponent </title>
<polygon fill="#fb8072" stroke="#000000" points="148.4912,-190 23.5088,-190 23.5088,-154 148.4912,-154 148.4912,-190"/>
<text text-anchor="middle" x="86" y="-167.8" font-family="Times,serif" font-size="14.00" fill="#000000">LayoutComponent </text>
</g>
<!-- MaterialModule&#45;&gt;LayoutComponent  -->
<g id="edge24" class="edge">
<title>MaterialModule&#45;&gt;LayoutComponent </title>
<path fill="none" stroke="#000000" stroke-dasharray="5,2" d="M1308.7962,-122.0328C1308.7962,-128.8526 1308.7962,-135 1308.7962,-135 1308.7962,-135 86,-135 86,-135 86,-135 86,-143.9336 86,-143.9336"/>
<polygon fill="#000000" stroke="#000000" points="82.5001,-143.9335 86,-153.9336 89.5001,-143.9336 82.5001,-143.9335"/>
</g>
<!-- F1test1Component -->
<g id="node10" class="node">
<title>F1test1Component</title>
<polygon fill="#ffffb3" stroke="#000000" points="2198.0562,-122 2075.9438,-122 2075.9438,-86 2198.0562,-86 2198.0562,-122"/>
<text text-anchor="middle" x="2137" y="-99.8" font-family="Times,serif" font-size="14.00" fill="#000000">F1test1Component</text>
</g>
<!-- F1test1Component&#45;&gt;Feature1Module -->
<g id="edge9" class="edge">
<title>F1test1Component&#45;&gt;Feature1Module</title>
<path fill="none" stroke="#000000" d="M2137,-122.2921C2137,-144.2057 2137,-178 2137,-178 2137,-178 1840.0453,-178 1840.0453,-178"/>
<polygon fill="#000000" stroke="#000000" points="1840.0454,-174.5001 1830.0453,-178 1840.0453,-181.5001 1840.0454,-174.5001"/>
</g>
<!-- F1test2Component -->
<g id="node11" class="node">
<title>F1test2Component</title>
<polygon fill="#ffffb3" stroke="#000000" points="2057.0562,-122 1934.9438,-122 1934.9438,-86 2057.0562,-86 2057.0562,-122"/>
<text text-anchor="middle" x="1996" y="-99.8" font-family="Times,serif" font-size="14.00" fill="#000000">F1test2Component</text>
</g>
<!-- F1test2Component&#45;&gt;Feature1Module -->
<g id="edge10" class="edge">
<title>F1test2Component&#45;&gt;Feature1Module</title>
<path fill="none" stroke="#000000" d="M1996,-122.2667C1996,-140.5552 1996,-166 1996,-166 1996,-166 1840.0998,-166 1840.0998,-166"/>
<polygon fill="#000000" stroke="#000000" points="1840.0999,-162.5001 1830.0998,-166 1840.0998,-169.5001 1840.0999,-162.5001"/>
</g>
<!-- F1test3Component -->
<g id="node12" class="node">
<title>F1test3Component</title>
<polygon fill="#ffffb3" stroke="#000000" points="1916.0562,-122 1793.9438,-122 1793.9438,-86 1916.0562,-86 1916.0562,-122"/>
<text text-anchor="middle" x="1855" y="-99.8" font-family="Times,serif" font-size="14.00" fill="#000000">F1test3Component</text>
</g>
<!-- F1test3Component&#45;&gt;Feature1Module -->
<g id="edge11" class="edge">
<title>F1test3Component&#45;&gt;Feature1Module</title>
<path fill="none" stroke="#000000" d="M1811.993,-122.2228C1811.993,-122.2228 1811.993,-143.7269 1811.993,-143.7269"/>
<polygon fill="#000000" stroke="#000000" points="1808.4931,-143.7269 1811.993,-153.7269 1815.4931,-143.727 1808.4931,-143.7269"/>
</g>
<!-- FeatureHomeComponent -->
<g id="node13" class="node">
<title>FeatureHomeComponent</title>
<polygon fill="#ffffb3" stroke="#000000" points="1775.5225,-122 1618.4775,-122 1618.4775,-86 1775.5225,-86 1775.5225,-122"/>
<text text-anchor="middle" x="1697" y="-99.8" font-family="Times,serif" font-size="14.00" fill="#000000">FeatureHomeComponent</text>
</g>
<!-- FeatureHomeComponent&#45;&gt;Feature1Module -->
<g id="edge12" class="edge">
<title>FeatureHomeComponent&#45;&gt;Feature1Module</title>
<path fill="none" stroke="#000000" d="M1748.7486,-122.2228C1748.7486,-122.2228 1748.7486,-143.7269 1748.7486,-143.7269"/>
<polygon fill="#000000" stroke="#000000" points="1745.2487,-143.7269 1748.7486,-153.7269 1752.2487,-143.727 1745.2487,-143.7269"/>
</g>
<!-- Feature1RoutingModule -->
<g id="node15" class="node">
<title>Feature1RoutingModule</title>
<polygon fill="#8dd3c7" stroke="#000000" points="1593.6456,-122 1590.6456,-126 1569.6456,-126 1566.6456,-122 1440.3544,-122 1440.3544,-86 1593.6456,-86 1593.6456,-122"/>
<text text-anchor="middle" x="1517" y="-99.8" font-family="Times,serif" font-size="14.00" fill="#000000">Feature1RoutingModule</text>
</g>
<!-- Feature1RoutingModule&#45;&gt;Feature1Module -->
<g id="edge13" class="edge">
<title>Feature1RoutingModule&#45;&gt;Feature1Module</title>
<path fill="none" stroke="#000000" d="M1517,-122.027C1517,-138.3976 1517,-160 1517,-160 1517,-160 1711.7051,-160 1711.7051,-160"/>
<polygon fill="#000000" stroke="#000000" points="1711.7051,-163.5001 1721.7051,-160 1711.7051,-156.5001 1711.7051,-163.5001"/>
</g>
<!-- Feature2HomeComponent -->
<g id="node16" class="node">
<title>Feature2HomeComponent</title>
<polygon fill="#ffffb3" stroke="#000000" points="2752.0225,-122 2587.9775,-122 2587.9775,-86 2752.0225,-86 2752.0225,-122"/>
<text text-anchor="middle" x="2670" y="-99.8" font-family="Times,serif" font-size="14.00" fill="#000000">Feature2HomeComponent</text>
</g>
<!-- Feature2HomeComponent&#45;&gt;Feature2Module -->
<g id="edge15" class="edge">
<title>Feature2HomeComponent&#45;&gt;Feature2Module</title>
<path fill="none" stroke="#000000" d="M2670,-122.2228C2670,-142.3652 2670,-172 2670,-172 2670,-172 2468.1497,-172 2468.1497,-172"/>
<polygon fill="#000000" stroke="#000000" points="2468.1497,-168.5001 2458.1497,-172 2468.1497,-175.5001 2468.1497,-168.5001"/>
</g>
<!-- Feature2TestComponent -->
<g id="node17" class="node">
<title>Feature2TestComponent</title>
<polygon fill="#ffffb3" stroke="#000000" points="2570.413,-122 2415.587,-122 2415.587,-86 2570.413,-86 2570.413,-122"/>
<text text-anchor="middle" x="2493" y="-99.8" font-family="Times,serif" font-size="14.00" fill="#000000">Feature2TestComponent</text>
</g>
<!-- Feature2TestComponent&#45;&gt;Feature2Module -->
<g id="edge16" class="edge">
<title>Feature2TestComponent&#45;&gt;Feature2Module</title>
<path fill="none" stroke="#000000" d="M2437.0288,-122.2228C2437.0288,-122.2228 2437.0288,-143.7269 2437.0288,-143.7269"/>
<polygon fill="#000000" stroke="#000000" points="2433.5288,-143.7269 2437.0288,-153.7269 2440.5288,-143.727 2433.5288,-143.7269"/>
</g>
<!-- Feature2RoutingModule -->
<g id="node19" class="node">
<title>Feature2RoutingModule</title>
<polygon fill="#8dd3c7" stroke="#000000" points="2391.6456,-122 2388.6456,-126 2367.6456,-126 2364.6456,-122 2238.3544,-122 2238.3544,-86 2391.6456,-86 2391.6456,-122"/>
<text text-anchor="middle" x="2315" y="-99.8" font-family="Times,serif" font-size="14.00" fill="#000000">Feature2RoutingModule</text>
</g>
<!-- Feature2RoutingModule&#45;&gt;Feature2Module -->
<g id="edge17" class="edge">
<title>Feature2RoutingModule&#45;&gt;Feature2Module</title>
<path fill="none" stroke="#000000" d="M2377.7938,-122.2228C2377.7938,-122.2228 2377.7938,-143.7269 2377.7938,-143.7269"/>
<polygon fill="#000000" stroke="#000000" points="2374.2939,-143.7269 2377.7938,-153.7269 2381.2939,-143.727 2374.2939,-143.7269"/>
</g>
<!-- Feature3HomeComponent -->
<g id="node20" class="node">
<title>Feature3HomeComponent</title>
<polygon fill="#ffffb3" stroke="#000000" points="3292.0225,-122 3127.9775,-122 3127.9775,-86 3292.0225,-86 3292.0225,-122"/>
<text text-anchor="middle" x="3210" y="-99.8" font-family="Times,serif" font-size="14.00" fill="#000000">Feature3HomeComponent</text>
</g>
<!-- Feature3HomeComponent&#45;&gt;Feature3Module -->
<g id="edge19" class="edge">
<title>Feature3HomeComponent&#45;&gt;Feature3Module</title>
<path fill="none" stroke="#000000" d="M3210,-122.2228C3210,-142.3652 3210,-172 3210,-172 3210,-172 3018.291,-172 3018.291,-172"/>
<polygon fill="#000000" stroke="#000000" points="3018.2911,-168.5001 3008.291,-172 3018.291,-175.5001 3018.2911,-168.5001"/>
</g>
<!-- GuardTestComponent -->
<g id="node21" class="node">
<title>GuardTestComponent</title>
<polygon fill="#ffffb3" stroke="#000000" points="3110.4172,-122 2969.5828,-122 2969.5828,-86 3110.4172,-86 3110.4172,-122"/>
<text text-anchor="middle" x="3040" y="-99.8" font-family="Times,serif" font-size="14.00" fill="#000000">GuardTestComponent</text>
</g>
<!-- GuardTestComponent&#45;&gt;Feature3Module -->
<g id="edge20" class="edge">
<title>GuardTestComponent&#45;&gt;Feature3Module</title>
<path fill="none" stroke="#000000" d="M2989.0277,-122.2228C2989.0277,-122.2228 2989.0277,-143.7269 2989.0277,-143.7269"/>
<polygon fill="#000000" stroke="#000000" points="2985.5278,-143.7269 2989.0277,-153.7269 2992.5278,-143.727 2985.5278,-143.7269"/>
</g>
<!-- Feature3RoutingModule -->
<g id="node23" class="node">
<title>Feature3RoutingModule</title>
<polygon fill="#8dd3c7" stroke="#000000" points="2945.6456,-122 2942.6456,-126 2921.6456,-126 2918.6456,-122 2792.3544,-122 2792.3544,-86 2945.6456,-86 2945.6456,-122"/>
<text text-anchor="middle" x="2869" y="-99.8" font-family="Times,serif" font-size="14.00" fill="#000000">Feature3RoutingModule</text>
</g>
<!-- Feature3RoutingModule&#45;&gt;Feature3Module -->
<g id="edge21" class="edge">
<title>Feature3RoutingModule&#45;&gt;Feature3Module</title>
<path fill="none" stroke="#000000" d="M2930.4605,-122.2228C2930.4605,-122.2228 2930.4605,-143.7269 2930.4605,-143.7269"/>
<polygon fill="#000000" stroke="#000000" points="2926.9606,-143.7269 2930.4605,-153.7269 2933.9606,-143.727 2926.9606,-143.7269"/>
</g>
<!-- LayoutComponent -->
<g id="node24" class="node">
<title>LayoutComponent</title>
<polygon fill="#ffffb3" stroke="#000000" points="292.4902,-190 171.5098,-190 171.5098,-154 292.4902,-154 292.4902,-190"/>
<text text-anchor="middle" x="232" y="-167.8" font-family="Times,serif" font-size="14.00" fill="#000000">LayoutComponent</text>
</g>
<!-- LayoutComponent&#45;&gt;MaterialModule -->
<g id="edge23" class="edge">
<title>LayoutComponent&#45;&gt;MaterialModule</title>
<path fill="none" stroke="#000000" d="M232,-153.8568C232,-147.5389 232,-142 232,-142 232,-142 1324.0777,-142 1324.0777,-142 1324.0777,-142 1324.0777,-132.1097 1324.0777,-132.1097"/>
<polygon fill="#000000" stroke="#000000" points="1327.5778,-132.1096 1324.0777,-122.1097 1320.5778,-132.1097 1327.5778,-132.1096"/>
</g>
</g>
</svg>
